<?xml version="1.0" encoding="UTF-8" standalone="no"?>
<svg
   height="1024pt"
   viewBox=".5 -.2 1023 1024.1"
   width="1024pt"
   version="1.1"
   id="svg2"
   sodipodi:docname="next.svg"
   inkscape:version="1.3 (0e150ed6c4, 2023-07-21)"
   xmlns:inkscape="http://www.inkscape.org/namespaces/inkscape"
   xmlns:sodipodi="http://sodipodi.sourceforge.net/DTD/sodipodi-0.dtd"
   xmlns="http://www.w3.org/2000/svg"
   xmlns:svg="http://www.w3.org/2000/svg">
  <defs
     id="defs2" />
  <sodipodi:namedview
     id="namedview2"
     pagecolor="#ffffff"
     bordercolor="#999999"
     borderopacity="1"
     inkscape:showpageshadow="2"
     inkscape:pageopacity="0"
     inkscape:pagecheckerboard="0"
     inkscape:deskcolor="#d1d1d1"
     inkscape:document-units="pt"
     inkscape:zoom="0.15216065"
     inkscape:cx="325.31408"
     inkscape:cy="515.90212"
     inkscape:window-width="1920"
     inkscape:window-height="1009"
     inkscape:window-x="-8"
     inkscape:window-y="-8"
     inkscape:window-maximized="1"
     inkscape:current-layer="svg2" />
  <circle
     style="fill:#ffffff;stroke-width:1.21046;stroke-linecap:round"
     id="path8"
     cx="511.99997"
     cy="511.84998"
     r="497.29031" />
  <path
     style="fill:#000000;stroke-width:3.70187;stroke-linecap:round"
     d="M 450.4507,1021.0779 C 241.85614,995.82707 67.37565,842.69891 15.445331,639.30701 -29.763359,462.24124 20.6377,278.56485 149.89086,149.34781 248.50482,50.761357 373.51733,-1.1315755 512.001,-0.96484701 594.49092,-0.86551523 663.90032,15.03548 736.05227,50.363088 811.12757,87.122072 873.9893,139.06949 923.0788,204.91724 1072.4634,405.2989 1055.7231,684.1832 883.49816,864.30831 849.15337,900.22846 788.52537,949.12607 786.25121,942.73974 785.33062,940.15457 590.06835,644.3399 442.91724,422.60227 387.95213,339.77698 338.40526,266.22593 332.81304,259.15547 L 322.6454,246.3001 h -30.93208 c -29.38618,0 -31.3414,0.31219 -39.12133,6.24621 l -8.18921,6.24623 v 287.424 287.42396 l 7.11177,5.06404 c 6.18807,4.40629 10.71996,5.0624 34.89313,5.05184 25.48866,-0.0112 28.37566,-0.48768 34.9826,-5.77413 l 7.20121,-5.76194 1.95186,-195.62663 c 1.07351,-107.59463 2.24051,-202.78888 2.59334,-211.54278 l 0.64149,-15.91615 24.6989,35.50529 c 13.5844,19.52791 50.41152,73.52044 81.83802,119.98341 142.89651,211.26732 169.99766,250.30522 248.01745,357.257 20.04181,27.47389 36.96019,51.30899 37.59639,52.96689 0.72313,1.88447 -5.78871,5.90569 -17.37285,10.72824 -80.16694,33.37362 -171.69205,45.96282 -258.10539,35.50232 z M 766.74098,233.59068 c -6.50061,-6.78519 -6.99111,-6.87969 -35.70509,-6.87969 -28.6665,0 -29.22,0.10607 -36.0146,6.90065 -6.16147,6.16149 -7.05016,9.11228 -8.29617,27.54722 -0.76753,11.35559 -1.97139,95.74244 -2.67527,187.52636 l -1.27978,166.87981 40.62282,62.06813 c 22.34253,34.13747 42.43837,64.11222 44.65743,66.6105 3.75082,4.22288 4.07848,-13.33494 4.65824,-249.61544 l 0.6236,-254.15784 z"
     id="path7" />
</svg>
